# xmcd
#
# Track frame offsets:
# 182
# 12440
# 26237
# 40050
# 52935
# 63607
# 77937
# 90127
# 103125
# 114605
# 125795
# 142640
# 154822
# 170032
# 183842
# 196177
# 208805
# 224250
# 239687
# 257285
# 275310
# 287652
# 303802
# 324882
#
# Disc length: 4549 seconds
#
# Revision: 3
# Processed by: cddbd v1.5.2PL0 Copyright (c) Steve Scherf et al.
# Submitted via: Axialis_AX_CDPlayer 2.6
#
DISCID=4f11c318
DTITLE=Hank Williams, Jr - Living Proof: The MGM Recordings - 1963 - 1975 - 
DTITLE=Disc \n3
DYEAR=1900
DGENRE=Country
TTITLE0=Hank
TTITLE1=On The Banks Of The Old Pontchartrain
TTITLE2=Alone And Forsaken
TTITLE3=I Cried Again
TTITLE4=I'll Think Of Something
TTITLE5=Angels Are Hard To Find
TTITLE6=Getting Over You
TTITLE7=Free Born Man
TTITLE8=The Night Time And My Baby
TTITLE9=Honky Tonkin'
TTITLE10=Satin Sheets
TTITLE11=Country Love
TTITLE12=My Girl
TTITLE13=The Kind Of Woman I Got
TTITLE14=There's A Devil In The Bottle
TTITLE15=Stoned At The Jukebox
TTITLE16=Montana Song
TTITLE17=On Susan's Floor
TTITLE18=Clovis, New Mexico
TTITLE19=Brothers Of The Road
TTITLE20=I Really Did
TTITLE21=Losing You
TTITLE22=Can't You See
TTITLE23=Living Proof
EXTD=
EXTT0=
EXTT1=
EXTT2=
EXTT3=
EXTT4=
EXTT5=
EXTT6=
EXTT7=
EXTT8=
EXTT9=
EXTT10=
EXTT11=
EXTT12=
EXTT13=
EXTT14=
EXTT15=
EXTT16=
EXTT17=
EXTT18=
EXTT19=
EXTT20=
EXTT21=
EXTT22=
EXTT23=
PLAYORDER=
